<svg xmlns="http://www.w3.org/2000/svg" width="24.594" height="17" viewBox="0 0 24.594 17">
  <defs>
    <style>
      .cls-1 {
        fill: #fff;
        fill-rule: evenodd;
      }
    </style>
  </defs>
  <path id="Forma_1" data-name="Forma 1" class="cls-1" d="M858.022,1129.26a0.865,0.865,0,0,1,1.241,0,0.842,0.842,0,0,1,0,1.2l-6.293,6.18h20.765a0.85,0.85,0,0,1,.869.85,0.865,0.865,0,0,1-.869.86H852.97l6.293,6.17a0.866,0.866,0,0,1,0,1.22,0.882,0.882,0,0,1-1.241,0l-7.782-7.64a0.833,0.833,0,0,1,0-1.21Z" transform="translate(-850 -1129)"/>
</svg>
