<?xml version="1.0" encoding="utf-8"?>
<svg xmlns="http://www.w3.org/2000/svg"
	xmlns:xlink="http://www.w3.org/1999/xlink"
	width="21px" height="21px" viewBox="0 0 21 21">
<path fillRule="evenodd" d="M 14.59 13.71C 15.97 12.25 16.83 10.31 16.83 8.17 16.83 3.67 13.06-0 8.42-0 3.77-0 0 3.67 0 8.17 0 12.66 3.77 16.33 8.42 16.33 10.31 16.33 12.05 15.73 13.46 14.71 13.46 14.71 19.71 20.78 19.71 20.78 19.87 20.93 20.06 21 20.25 21 20.44 21 20.64 20.93 20.78 20.78 21.07 20.5 21.07 20.03 20.78 19.73 20.78 19.73 14.59 13.71 14.59 13.71ZM 1.52 8.17C 1.52 4.48 4.61 1.48 8.42 1.48 12.21 1.48 15.31 4.47 15.31 8.17 15.31 11.86 12.22 14.85 8.42 14.85 4.61 14.85 1.52 11.85 1.52 8.17Z" fill="rgb(255,255,255)"/></svg>