<?xml version="1.0" encoding="utf-8"?>
<svg xmlns="http://www.w3.org/2000/svg"
	xmlns:xlink="http://www.w3.org/1999/xlink"
	width="23px" height="21px" viewBox="0 0 23 21">
<path fillRule="evenodd" d="M 22.93 5.48C 22.93 5.48 19.05 14.47 19.05 14.47 18.9 14.78 18.61 14.98 18.27 14.98 18.27 14.98 7.59 14.98 7.59 14.98 7.2 14.98 6.86 14.72 6.76 14.35 6.76 14.35 3.29 1.71 3.29 1.71 3.29 1.71 0.85 1.71 0.85 1.71 0.38 1.71 0 1.33 0 0.86 0 0.39 0.38-0 0.85-0 0.85-0 3.93-0 3.93-0 4.31-0 4.65 0.26 4.75 0.63 4.75 0.63 8.23 13.27 8.23 13.27 8.23 13.27 17.7 13.27 17.7 13.27 17.7 13.27 20.85 5.99 20.85 5.99 20.85 5.99 10.35 5.99 10.35 5.99 9.88 5.99 9.5 5.61 9.5 5.14 9.5 4.67 9.88 4.28 10.35 4.28 10.35 4.28 22.15 4.28 22.15 4.28 22.43 4.28 22.7 4.42 22.86 4.67 23.02 4.91 23.04 5.21 22.93 5.48ZM 6.78 17.12C 7.84 17.12 8.71 17.99 8.71 19.06 8.71 20.13 7.84 21 6.78 21 5.72 21 4.85 20.13 4.85 19.06 4.85 17.99 5.72 17.12 6.78 17.12ZM 18.71 17.12C 19.77 17.05 20.69 17.86 20.76 18.92 20.79 19.44 20.63 19.94 20.29 20.33 19.95 20.73 19.49 20.96 18.97 21 18.93 21 18.88 21 18.83 21 17.83 21 16.99 20.2 16.92 19.19 16.85 18.13 17.64 17.19 18.71 17.12Z" fill="rgb(255,255,255)"/></svg>