<?xml version="1.0" encoding="utf-8"?>
<svg xmlns="http://www.w3.org/2000/svg"
	xmlns:xlink="http://www.w3.org/1999/xlink"
	width="21px" height="25px" viewBox="0 0 21 25">
<path fillRule="evenodd" d="M 20.74 22.2C 20.69 22.33 20.59 22.45 20.47 22.53 20.32 22.62 16.65 25 10.5 25 4.35 25 0.68 22.63 0.53 22.53 0.41 22.45 0.31 22.33 0.26 22.2-0.01 21.51-0 20.12 0 19.85 0 19.85 0 19.84 0 19.84 0.01 19.8 0.01 19.76 0.01 19.71 0.04 18.69 0.1 16.29 2.32 15.52 2.34 15.52 2.35 15.51 2.37 15.51 4.69 14.91 6.59 13.56 6.61 13.55 6.92 13.33 7.35 13.4 7.57 13.72 7.79 14.04 7.72 14.47 7.4 14.69 7.32 14.75 5.28 16.19 2.74 16.85 1.55 17.28 1.42 18.57 1.38 19.75 1.38 19.8 1.38 19.84 1.38 19.88 1.37 20.35 1.4 21.07 1.48 21.48 2.32 21.96 5.58 23.61 10.49 23.61 15.43 23.61 18.67 21.96 19.5 21.48 19.58 21.07 19.61 20.35 19.61 19.89 19.6 19.84 19.6 19.8 19.6 19.76 19.57 18.58 19.43 17.29 18.24 16.86 15.7 16.19 13.67 14.76 13.58 14.7 13.27 14.47 13.19 14.04 13.41 13.72 13.63 13.41 14.06 13.33 14.37 13.55 14.39 13.57 16.31 14.91 18.61 15.51 18.63 15.52 18.65 15.52 18.66 15.53 20.88 16.29 20.95 18.69 20.98 19.71 20.98 19.76 20.98 19.8 20.98 19.84 20.98 19.85 20.98 19.85 20.98 19.86 20.99 20.13 20.99 21.51 20.74 22.2ZM 10.57 13.47C 10.55 13.47 10.53 13.47 10.52 13.47 10.5 13.47 10.49 13.47 10.48 13.47 10.45 13.47 10.43 13.47 10.4 13.47 8.91 13.44 7.7 12.91 6.81 11.89 4.84 9.64 5.17 5.79 5.2 5.43 5.33 2.65 6.64 1.33 7.71 0.71 8.78 0.09 9.89-0 10.46-0 10.46-0 10.49-0 10.49-0 10.49-0 10.5-0 10.51-0 10.51-0 10.55-0 10.55-0 11.58 0.02 12.5 0.27 13.29 0.73 14.36 1.35 15.64 2.67 15.77 5.43 15.81 5.79 16.13 9.64 14.17 11.89 13.27 12.91 12.06 13.44 10.57 13.47ZM 14.4 5.56C 14.4 5.54 14.4 5.53 14.4 5.51 14.24 2 11.89 1.43 10.52 1.4 10.5 1.4 10.48 1.4 10.47 1.4 10.47 1.4 10.45 1.4 10.45 1.4 9.34 1.4 6.74 1.8 6.57 5.51 6.57 5.52 6.57 5.54 6.57 5.56 6.56 5.59 6.21 9.12 7.83 10.97 8.47 11.7 9.34 12.06 10.46 12.07 10.47 12.07 10.47 12.07 10.48 12.07 10.49 12.07 10.5 12.07 10.51 12.07 11.64 12.06 12.5 11.7 13.14 10.97 14.77 9.11 14.41 5.59 14.4 5.56Z" fill="rgb(255,255,255)"/></svg>