<svg xmlns="http://www.w3.org/2000/svg" width="52" height="36.03" viewBox="0 0 52 36.03">
  <defs>
    <style>
      .cls-1 {
        fill: #2b2b2b;
        fill-rule: evenodd;
      }
    </style>
  </defs>
  <path id="Forma_1" data-name="Forma 1" class="cls-1" d="M1636.02,2291.54a1.859,1.859,0,0,0-2.62,0,1.8,1.8,0,0,0,0,2.56l13.28,13.08h-43.85a1.808,1.808,0,0,0-1.83,1.81,1.831,1.831,0,0,0,1.83,1.83h43.85l-13.28,13.06a1.829,1.829,0,0,0,0,2.58,1.859,1.859,0,0,0,2.62,0l16.43-16.18a1.77,1.77,0,0,0,0-2.56Z" transform="translate(-1601 -2291)"/>
</svg>
