<?xml version="1.0" encoding="utf-8"?>
<svg xmlns="http://www.w3.org/2000/svg"
	xmlns:xlink="http://www.w3.org/1999/xlink"
	width="24px" height="24px" viewBox="0 0 24 24">
<path fillRule="evenodd" d="M 23.45 11.36C 23.41 11.36 23.37 11.37 23.33 11.37 23 11.37 22.71 11.13 22.66 10.8 22.26 8.44 21.14 6.28 19.42 4.57 17.71 2.86 15.55 1.74 13.18 1.34 12.81 1.28 12.56 0.93 12.62 0.55 12.69 0.18 13.04-0.07 13.41-0.01 16.06 0.44 18.47 1.69 20.39 3.61 22.31 5.52 23.55 7.93 24.01 10.58 24.07 10.95 23.82 11.3 23.45 11.36ZM 13.22 4.35C 14.83 4.62 16.3 5.38 17.46 6.54 18.62 7.7 19.38 9.17 19.66 10.78 19.72 11.15 19.47 11.5 19.09 11.57 19.05 11.57 19.02 11.58 18.98 11.58 18.65 11.58 18.36 11.34 18.3 11.01 18.07 9.68 17.45 8.47 16.48 7.51 15.52 6.55 14.31 5.92 12.98 5.7 12.6 5.64 12.36 5.28 12.43 4.91 12.49 4.54 12.84 4.29 13.22 4.35ZM 8.67 8.86C 8.29 9.24 7.91 9.64 7.49 10.02 7.8 10.7 8.23 11.38 8.86 12.18 10.17 13.79 11.54 15.03 13.04 15.98 13.19 16.07 13.36 16.16 13.54 16.25 13.67 16.32 13.8 16.38 13.93 16.45 13.93 16.45 15.54 14.86 15.54 14.86 16.05 14.34 16.65 14.07 17.28 14.07 17.9 14.07 18.5 14.35 18.99 14.86 18.99 14.86 21.78 17.65 21.78 17.65 22.29 18.16 22.56 18.76 22.56 19.39 22.56 20.02 22.3 20.62 21.79 21.15 21.57 21.37 21.35 21.59 21.13 21.8 20.81 22.11 20.51 22.4 20.24 22.72 20.24 22.73 20.23 22.73 20.22 22.74 19.45 23.58 18.47 24 17.3 24 17.19 24 17.08 23.99 16.98 23.99 15.23 23.88 13.68 23.22 12.51 22.67 9.45 21.2 6.78 19.1 4.55 16.45 2.72 14.25 1.49 12.2 0.67 9.98 0.34 9.08-0.1 7.7 0.02 6.22 0.1 5.31 0.47 4.52 1.12 3.87 1.12 3.87 2.85 2.13 2.85 2.13 2.85 2.12 2.85 2.12 2.86 2.12 3.37 1.63 3.96 1.37 4.58 1.37 5.2 1.37 5.79 1.63 6.28 2.12 6.61 2.42 6.93 2.75 7.24 3.06 7.39 3.22 7.55 3.38 7.71 3.54 7.71 3.54 9.1 4.93 9.1 4.93 10.16 5.99 10.16 7.37 9.1 8.43 8.95 8.58 8.81 8.72 8.67 8.86ZM 8.13 5.89C 8.13 5.89 6.75 4.51 6.75 4.51 6.58 4.34 6.42 4.18 6.26 4.02 5.95 3.7 5.66 3.4 5.35 3.11 5.35 3.11 5.34 3.1 5.34 3.1 5.17 2.93 4.91 2.74 4.59 2.74 4.34 2.74 4.07 2.87 3.82 3.1 3.82 3.1 2.09 4.83 2.09 4.83 1.67 5.25 1.44 5.74 1.39 6.33 1.31 7.26 1.49 8.25 1.96 9.51 2.73 11.58 3.88 13.5 5.61 15.59 7.71 18.08 10.23 20.06 13.11 21.45 14.16 21.95 15.56 22.54 17.07 22.63 17.14 22.64 17.22 22.64 17.3 22.64 18.09 22.64 18.7 22.38 19.21 21.83 19.52 21.46 19.86 21.13 20.19 20.82 20.41 20.6 20.61 20.41 20.81 20.2 21.33 19.66 21.33 19.13 20.8 18.61 20.8 18.61 18.01 15.82 18.01 15.82 18 15.81 18 15.81 18 15.81 17.84 15.64 17.58 15.44 17.26 15.44 16.95 15.44 16.67 15.65 16.5 15.82 16.5 15.82 14.76 17.55 14.76 17.55 14.68 17.64 14.41 17.9 13.99 17.9 13.82 17.9 13.66 17.86 13.49 17.78 13.47 17.77 13.45 17.75 13.43 17.74 13.28 17.65 13.11 17.56 12.92 17.47 12.72 17.37 12.51 17.26 12.3 17.13 10.67 16.1 9.19 14.76 7.79 13.04 7.79 13.04 7.79 13.03 7.79 13.03 7.02 12.05 6.51 11.23 6.15 10.36 6.14 10.34 6.14 10.33 6.13 10.31 6.04 10.02 5.96 9.6 6.4 9.16 6.4 9.15 6.41 9.15 6.42 9.14 6.86 8.74 7.27 8.34 7.7 7.9 7.84 7.76 7.99 7.61 8.13 7.47 8.67 6.93 8.67 6.43 8.13 5.89Z" fill="rgb(181,143,125)"/></svg>